<?xml version="1.0" encoding="UTF-8"?>
<svg data-bbox="0.001 0.001 1123.444 1123.444" height="1500" viewBox="0 0 1125 1125" width="1500" xmlns="http://www.w3.org/2000/svg" data-type="ugc"><defs><clipPath id="a"><path d="M0 0h1123.465v1123.465H0Zm0 0"/></clipPath><clipPath id="b"><path d="M733.84 300.004h139.453v139.453H733.84Zm0 0"/></clipPath><clipPath id="c"><path d="M803.566 300.004c-38.507 0-69.726 31.215-69.726 69.726 0 38.508 31.219 69.727 69.726 69.727 38.508 0 69.727-31.219 69.727-69.727 0-38.511-31.219-69.726-69.727-69.726m0 0"/></clipPath><clipPath id="d"><path d="M415.023 176.219h64.48v64.476h-64.48Zm0 0"/></clipPath><clipPath id="e"><path d="M447.262 176.219c-17.805 0-32.239 14.433-32.239 32.238s14.434 32.238 32.239 32.238c17.808 0 32.242-14.433 32.242-32.238s-14.434-32.238-32.242-32.238m0 0"/></clipPath><clipPath id="f"><path d="M428.336 558.45h64.48v64.48h-64.48Zm0 0"/></clipPath><clipPath id="g"><path d="M460.578 558.45c-17.805 0-32.242 14.433-32.242 32.241 0 17.805 14.437 32.239 32.242 32.239s32.238-14.434 32.238-32.239c0-17.808-14.433-32.242-32.238-32.242Zm0 0"/></clipPath><clipPath id="h"><path d="M576.273 558.45h64.48v64.48h-64.48Zm0 0"/></clipPath><clipPath id="i"><path d="M608.516 558.45c-17.805 0-32.243 14.433-32.243 32.241 0 17.805 14.438 32.239 32.243 32.239 17.804 0 32.238-14.434 32.238-32.239 0-17.808-14.434-32.242-32.238-32.242Zm0 0"/></clipPath><clipPath id="j"><path d="M339.41 407.215h64.48v64.48h-64.48Zm0 0"/></clipPath><clipPath id="k"><path d="M371.652 407.215c-17.804 0-32.242 14.437-32.242 32.242s14.438 32.238 32.242 32.238c17.805 0 32.239-14.433 32.239-32.238s-14.434-32.242-32.239-32.242m0 0"/></clipPath><clipPath id="l"><path d="M563.855 176.219h64.48v64.476h-64.48Zm0 0"/></clipPath><clipPath id="m"><path d="M596.098 176.219c-17.809 0-32.243 14.433-32.243 32.238s14.434 32.238 32.243 32.238c17.804 0 32.238-14.433 32.238-32.238s-14.434-32.238-32.238-32.238m0 0"/></clipPath><clipPath id="n"><path d="M694.95 444.238h64.48v64.48h-64.48Zm0 0"/></clipPath><clipPath id="o"><path d="M727.191 444.238c-17.804 0-32.242 14.438-32.242 32.242 0 17.805 14.438 32.239 32.242 32.239 17.805 0 32.239-14.434 32.239-32.239 0-17.804-14.434-32.242-32.239-32.242m0 0"/></clipPath><clipPath id="p"><path d="M850.195 444.238h64.48v64.48h-64.48Zm0 0"/></clipPath><clipPath id="q"><path d="M882.434 444.238c-17.805 0-32.239 14.438-32.239 32.242 0 17.805 14.434 32.239 32.239 32.239 17.808 0 32.242-14.434 32.242-32.239 0-17.804-14.434-32.242-32.242-32.242m0 0"/></clipPath><clipPath id="r"><path d="M850.195 857.566h64.48v64.477h-64.48Zm0 0"/></clipPath><clipPath id="s"><path d="M882.434 857.566c-17.805 0-32.239 14.434-32.239 32.239 0 17.804 14.434 32.238 32.239 32.238 17.808 0 32.242-14.434 32.242-32.238s-14.434-32.239-32.242-32.239m0 0"/></clipPath><clipPath id="t"><path d="M694.95 857.566h64.48v64.477h-64.48Zm0 0"/></clipPath><clipPath id="u"><path d="M727.191 857.566c-17.804 0-32.242 14.434-32.242 32.239 0 17.804 14.438 32.238 32.242 32.238 17.805 0 32.239-14.434 32.239-32.238s-14.434-32.239-32.239-32.239m0 0"/></clipPath><clipPath id="v"><path d="M382.785 715.883h64.477v64.48h-64.477Zm0 0"/></clipPath><clipPath id="w"><path d="M415.023 715.883c-17.804 0-32.238 14.433-32.238 32.238s14.434 32.242 32.238 32.242 32.239-14.437 32.239-32.242-14.434-32.238-32.239-32.238m0 0"/></clipPath><clipPath id="x"><path d="M347.629 804.426h64.48v64.48h-64.48Zm0 0"/></clipPath><clipPath id="y"><path d="M379.867 804.426c-17.805 0-32.238 14.433-32.238 32.238s14.433 32.242 32.238 32.242c17.809 0 32.242-14.437 32.242-32.242s-14.433-32.238-32.242-32.238m0 0"/></clipPath><clipPath id="z"><path d="M242.566 804.426c-17.808 0-32.242 14.433-32.242 32.238s14.434 32.242 32.242 32.242c17.805 0 32.239-14.437 32.239-32.242s-14.434-32.238-32.239-32.238m0 0"/></clipPath><clipPath id="A"><path d="M242.566 680.422h64.477v64.48h-64.477Zm0 0"/></clipPath><clipPath id="B"><path d="M274.805 680.422c-17.805 0-32.239 14.433-32.239 32.238s14.434 32.242 32.239 32.242c17.804 0 32.238-14.437 32.238-32.242s-14.434-32.238-32.238-32.238m0 0"/></clipPath><clipPath id="C"><path d="M695.98 558.45h64.48v64.48h-64.48Zm0 0"/></clipPath><clipPath id="D"><path d="M728.223 558.45c-17.809 0-32.243 14.433-32.243 32.241 0 17.805 14.434 32.239 32.243 32.239 17.804 0 32.238-14.434 32.238-32.239 0-17.808-14.434-32.242-32.238-32.242Zm0 0"/></clipPath><clipPath id="E"><path d="M617.344 715.883h64.48v64.48h-64.48Zm0 0"/></clipPath><clipPath id="F"><path d="M649.582 715.883c-17.805 0-32.238 14.433-32.238 32.238s14.433 32.242 32.238 32.242c17.809 0 32.242-14.437 32.242-32.242s-14.433-32.238-32.242-32.238m0 0"/></clipPath></defs><g clip-path="url(#a)"><path d="M1123.445 561.723c0 9.195-.222 18.382-.675 27.562a558 558 0 0 1-2.028 27.496 561 561 0 0 1-8.09 54.527 560 560 0 0 1-13.394 53.473 558 558 0 0 1-8.649 26.18 557 557 0 0 1-9.921 25.726 562 562 0 0 1-23.566 49.832 570 570 0 0 1-13.59 23.989 566 566 0 0 1-14.75 23.293 562 562 0 0 1-15.88 22.539 562 562 0 0 1-16.96 21.738 563 563 0 0 1-37.02 40.844 563 563 0 0 1-40.844 37.02 559 559 0 0 1-21.738 16.96 562 562 0 0 1-22.54 15.88 566 566 0 0 1-23.292 14.75 570 570 0 0 1-23.988 13.59 562 562 0 0 1-75.56 33.487 558 558 0 0 1-26.179 8.649 560 560 0 0 1-53.473 13.395 561 561 0 0 1-54.527 8.09 558 558 0 0 1-27.496 2.027 559 559 0 0 1-27.562.675c-9.192 0-18.38-.222-27.563-.675a558 558 0 0 1-27.496-2.028 561 561 0 0 1-54.527-8.09 560.6 560.6 0 0 1-79.653-22.043 561.5 561.5 0 0 1-122.836-61.828 562 562 0 0 1-44.277-32.84 562 562 0 0 1-40.848-37.02 559 559 0 0 1-19.007-19.968 561 561 0 0 1-18.012-20.875 562 562 0 0 1-16.961-21.738 562 562 0 0 1-67.785-119.652 566 566 0 0 1-9.922-25.727 558 558 0 0 1-8.648-26.18 558 558 0 0 1-7.352-26.57 560 560 0 0 1-6.043-26.902 565 565 0 0 1-4.715-27.164 565 565 0 0 1-3.375-27.364 567 567 0 0 1-2.027-27.496 563 563 0 0 1 0-55.125 568 568 0 0 1 2.027-27.496 565 565 0 0 1 3.375-27.363 561 561 0 0 1 10.758-54.066 561 561 0 0 1 16-52.75 564 564 0 0 1 9.922-25.723 566 566 0 0 1 11.172-25.207 562 562 0 0 1 25.988-48.614 557 557 0 0 1 14.75-23.293 562 562 0 0 1 69.855-85.125 563 563 0 0 1 19.97-19.007 562 562 0 0 1 88.45-65.598 562 562 0 0 1 48.613-25.988 566 566 0 0 1 25.206-11.172 564 564 0 0 1 25.722-9.922 561 561 0 0 1 52.75-16 561 561 0 0 1 54.067-10.758 565 565 0 0 1 27.363-3.375A568 568 0 0 1 534.16.676a563 563 0 0 1 55.125 0 567 567 0 0 1 27.496 2.027q13.723 1.353 27.364 3.375a565 565 0 0 1 27.164 4.715 560 560 0 0 1 26.902 6.043 558 558 0 0 1 26.57 7.352 556 556 0 0 1 26.18 8.648 566 566 0 0 1 25.726 9.922 564 564 0 0 1 25.204 11.172 562 562 0 0 1 48.617 25.988 562 562 0 0 1 67.57 47.586 561 561 0 0 1 20.875 18.012 559 559 0 0 1 19.969 19.007 562 562 0 0 1 53.98 62.582 561 561 0 0 1 30.629 45.836 566 566 0 0 1 13.59 23.989 562 562 0 0 1 23.566 49.832 555 555 0 0 1 9.922 25.722 561 561 0 0 1 8.649 26.18 561 561 0 0 1 13.395 53.473 561 561 0 0 1 8.09 54.527 558 558 0 0 1 2.027 27.496c.453 9.184.675 18.371.675 27.563m0 0" fill="#fff"/></g><path stroke-width="34.746" stroke="#5303a2" d="m279.587 706.196 87.202-273.394m94.691 165.123-93.527-180.91m78.961 180.915h173.234m-178.22-389.475 166.589 382.233m6.326-382.231H436.51m278.058 268.021L596.088 215.11M403.851 836.664H236.652m180.654-101.422-37.464 117.2m48.494-104.32h232.875m-13.239-11.398 85.856 169.969M899.301 476.48H745.645m136.777 430.185V461.39" fill="none"/><g clip-path="url(#b)"><g clip-path="url(#c)"><path d="M733.84 300.004h139.453v139.453H733.84Zm0 0" fill="#5303a2"/></g></g><g clip-path="url(#d)"><g clip-path="url(#e)"><path d="M415.023 176.219h64.48v64.476h-64.48Zm0 0" fill="#5303a2"/></g></g><path stroke-width="34.746" stroke="#5303a2" d="M887.485 889.805H733.83m-6.67-410.563V590.72" fill="none"/><g clip-path="url(#f)"><g clip-path="url(#g)"><path d="M428.336 558.45h64.48v64.48h-64.48Zm0 0" fill="#5303a2"/></g></g><g clip-path="url(#h)"><g clip-path="url(#i)"><path d="M576.273 558.45h64.48v64.48h-64.48Zm0 0" fill="#5303a2"/></g></g><g clip-path="url(#j)"><g clip-path="url(#k)"><path d="M339.41 407.215h64.48v64.48h-64.48Zm0 0" fill="#5303a2"/></g></g><g clip-path="url(#l)"><g clip-path="url(#m)"><path d="M563.855 176.219h64.48v64.476h-64.48Zm0 0" fill="#5303a2"/></g></g><g clip-path="url(#n)"><g clip-path="url(#o)"><path d="M694.95 444.238h64.48v64.48h-64.48Zm0 0" fill="#5303a2"/></g></g><g clip-path="url(#p)"><g clip-path="url(#q)"><path d="M850.195 444.238h64.48v64.48h-64.48Zm0 0" fill="#5303a2"/></g></g><g clip-path="url(#r)"><g clip-path="url(#s)"><path d="M850.195 857.566h64.48v64.477h-64.48Zm0 0" fill="#5303a2"/></g></g><g clip-path="url(#t)"><g clip-path="url(#u)"><path d="M694.95 857.566h64.48v64.477h-64.48Zm0 0" fill="#5303a2"/></g></g><g clip-path="url(#v)"><g clip-path="url(#w)"><path d="M382.785 715.883h64.477v64.48h-64.477Zm0 0" fill="#5303a2"/></g></g><g clip-path="url(#x)"><g clip-path="url(#y)"><path d="M347.629 804.426h64.48v64.48h-64.48Zm0 0" fill="#5303a2"/></g></g><g clip-path="url(#z)"><path d="M210.324 804.426h64.48v64.48h-64.48Zm0 0" fill="#5303a2"/></g><g clip-path="url(#A)"><g clip-path="url(#B)"><path d="M242.566 680.422h64.477v64.48h-64.477Zm0 0" fill="#5303a2"/></g></g><g clip-path="url(#C)"><g clip-path="url(#D)"><path d="M695.98 558.45h64.48v64.48h-64.48Zm0 0" fill="#5303a2"/></g></g><g clip-path="url(#E)"><g clip-path="url(#F)"><path d="M617.344 715.883h64.48v64.48h-64.48Zm0 0" fill="#5303a2"/></g></g></svg>
