<?xml version="1.0" encoding="UTF-8"?>
<svg data-bbox="101.41 96.344 172.18 182.312" height="500" viewBox="0 0 375 375" width="500" xmlns="http://www.w3.org/2000/svg" data-type="ugc"><defs><clipPath id="a"><path d="M229.383 126.602h34.09v34.09h-34.09Zm0 0"/></clipPath><clipPath id="b"><path d="M246.43 126.602c-9.414 0-17.047 7.632-17.047 17.043 0 9.414 7.633 17.046 17.047 17.046 9.41 0 17.043-7.632 17.043-17.046 0-9.41-7.633-17.043-17.043-17.043m0 0"/></clipPath><clipPath id="c"><path d="M151.45 96.344h15.76v15.761h-15.76Zm0 0"/></clipPath><clipPath id="d"><path d="M159.332 96.344a7.88 7.88 0 0 0-7.883 7.879 7.882 7.882 0 1 0 7.883-7.879m0 0"/></clipPath><clipPath id="e"><path d="M154.703 189.777h15.762v15.762h-15.762Zm0 0"/></clipPath><clipPath id="f"><path d="M162.586 189.777a7.882 7.882 0 1 0-.002 15.76 7.882 7.882 0 0 0 .002-15.76m0 0"/></clipPath><clipPath id="g"><path d="M190.867 189.777h15.762v15.762h-15.762Zm0 0"/></clipPath><clipPath id="h"><path d="M198.75 189.777a7.88 7.88 0 0 0-7.883 7.883 7.88 7.88 0 0 0 7.883 7.88 7.88 7.88 0 0 0 7.879-7.88 7.88 7.88 0 0 0-7.879-7.883m0 0"/></clipPath><clipPath id="i"><path d="M132.969 152.809h15.761v15.761h-15.76Zm0 0"/></clipPath><clipPath id="j"><path d="M140.848 152.809a7.88 7.88 0 0 0-7.88 7.882 7.882 7.882 0 1 0 7.879-7.883Zm0 0"/></clipPath><clipPath id="k"><path d="M187.832 96.344h15.762v15.761h-15.762Zm0 0"/></clipPath><clipPath id="l"><path d="M195.71 96.344a7.882 7.882 0 1 0 .006 15.76 7.882 7.882 0 0 0-.005-15.76Zm0 0"/></clipPath><clipPath id="m"><path d="M219.879 161.86h15.762v15.761h-15.762Zm0 0"/></clipPath><clipPath id="n"><path d="M227.758 161.86a7.88 7.88 0 0 0-7.88 7.882 7.882 7.882 0 1 0 7.879-7.883Zm0 0"/></clipPath><clipPath id="o"><path d="M257.828 161.86h15.762v15.761h-15.762Zm0 0"/></clipPath><clipPath id="p"><path d="M265.707 161.86a7.88 7.88 0 0 0-7.879 7.882 7.882 7.882 0 1 0 7.879-7.883Zm0 0"/></clipPath><clipPath id="q"><path d="M257.828 262.895h15.762v15.761h-15.762Zm0 0"/></clipPath><clipPath id="r"><path d="M265.707 262.895a7.882 7.882 0 0 0 0 15.761 7.88 7.88 0 0 0 7.883-7.879 7.885 7.885 0 0 0-7.883-7.882m0 0"/></clipPath><clipPath id="s"><path d="M219.879 262.895h15.762v15.761h-15.762Zm0 0"/></clipPath><clipPath id="t"><path d="M227.758 262.895a7.882 7.882 0 0 0 0 15.761 7.88 7.88 0 0 0 7.883-7.879 7.885 7.885 0 0 0-7.883-7.882m0 0"/></clipPath><clipPath id="u"><path d="M200.906 228.262h15.762v15.761h-15.762Zm0 0"/></clipPath><clipPath id="v"><path d="M208.79 228.262a7.88 7.88 0 0 0-7.884 7.883 7.88 7.88 0 0 0 7.883 7.878 7.88 7.88 0 0 0 7.879-7.878 7.88 7.88 0 0 0-7.879-7.883Zm0 0"/></clipPath><clipPath id="w"><path d="M143.57 228.262h15.762v15.761H143.57Zm0 0"/></clipPath><clipPath id="x"><path d="M151.45 228.262a7.88 7.88 0 0 0-7.88 7.883 7.882 7.882 0 1 0 7.879-7.883Zm0 0"/></clipPath><clipPath id="y"><path d="M134.977 249.906h15.761v15.762h-15.761Zm0 0"/></clipPath><clipPath id="z"><path d="M142.855 249.906a7.88 7.88 0 0 0-7.878 7.88 7.88 7.88 0 0 0 7.878 7.882 7.882 7.882 0 1 0 0-15.762m0 0"/></clipPath><clipPath id="A"><path d="M101.41 249.906h15.762v15.762H101.41Zm0 0"/></clipPath><clipPath id="B"><path d="M109.293 249.906a7.882 7.882 0 1 0-.002 15.764 7.882 7.882 0 0 0 .002-15.764m0 0"/></clipPath><clipPath id="C"><path d="M109.293 219.594h15.762v15.761h-15.762Zm0 0"/></clipPath><clipPath id="D"><path d="M117.172 219.594a7.88 7.88 0 0 0-7.879 7.879 7.88 7.88 0 0 0 7.879 7.882 7.88 7.88 0 0 0 7.883-7.882 7.88 7.88 0 0 0-7.883-7.88Zm0 0"/></clipPath><clipPath id="E"><path d="M220.129 189.777h15.762v15.762h-15.762Zm0 0"/></clipPath><clipPath id="F"><path d="M228.012 189.777a7.88 7.88 0 0 0-7.883 7.883 7.88 7.88 0 0 0 7.883 7.88 7.88 7.88 0 0 0 7.879-7.88 7.88 7.88 0 0 0-7.88-7.883Zm0 0"/></clipPath></defs><path stroke-width="8.25" stroke="#fff" d="m118.34 225.89 21.317-66.831m23.148 40.366-22.863-44.222m19.304 44.227h42.343m-43.566-95.204 40.723 93.433m1.543-93.437h-43.594m67.973 65.513-28.965-63.89m-46.981 151.94H107.85m44.162-24.795-9.16 28.653m11.851-25.498h56.925m-3.234-2.791 20.989 41.547m40.449-105.158h-37.563m33.437 105.159V166.054" fill="none"/><g clip-path="url(#a)"><g clip-path="url(#b)"><path d="M229.383 126.602h34.09v34.09h-34.09Zm0 0" fill="#fff"/></g></g><g clip-path="url(#c)"><g clip-path="url(#d)"><path d="M151.45 96.344h15.76v15.761h-15.76Zm0 0" fill="#fff"/></g></g><path stroke-width="8.25" stroke="#fff" d="M266.941 270.776h-37.558m-1.625-100.366v27.25" fill="none"/><g clip-path="url(#e)"><g clip-path="url(#f)"><path d="M154.703 189.777h15.762v15.762h-15.762Zm0 0" fill="#fff"/></g></g><g clip-path="url(#g)"><g clip-path="url(#h)"><path d="M190.867 189.777h15.762v15.762h-15.762Zm0 0" fill="#fff"/></g></g><g clip-path="url(#i)"><g clip-path="url(#j)"><path d="M132.969 152.809h15.761v15.761h-15.76Zm0 0" fill="#fff"/></g></g><g clip-path="url(#k)"><g clip-path="url(#l)"><path d="M187.832 96.344h15.762v15.761h-15.762Zm0 0" fill="#fff"/></g></g><g clip-path="url(#m)"><g clip-path="url(#n)"><path d="M219.879 161.86h15.762v15.761h-15.762Zm0 0" fill="#fff"/></g></g><g clip-path="url(#o)"><g clip-path="url(#p)"><path d="M257.828 161.86h15.762v15.761h-15.762Zm0 0" fill="#fff"/></g></g><g clip-path="url(#q)"><g clip-path="url(#r)"><path d="M257.828 262.895h15.762v15.761h-15.762Zm0 0" fill="#fff"/></g></g><g clip-path="url(#s)"><g clip-path="url(#t)"><path d="M219.879 262.895h15.762v15.761h-15.762Zm0 0" fill="#fff"/></g></g><g clip-path="url(#u)"><g clip-path="url(#v)"><path d="M200.906 228.262h15.762v15.761h-15.762Zm0 0" fill="#fff"/></g></g><g clip-path="url(#w)"><g clip-path="url(#x)"><path d="M143.57 228.262h15.762v15.761H143.57Zm0 0" fill="#fff"/></g></g><g clip-path="url(#y)"><g clip-path="url(#z)"><path d="M134.977 249.906h15.761v15.762h-15.761Zm0 0" fill="#fff"/></g></g><g clip-path="url(#A)"><g clip-path="url(#B)"><path d="M101.41 249.906h15.762v15.762H101.41Zm0 0" fill="#fff"/></g></g><g clip-path="url(#C)"><g clip-path="url(#D)"><path d="M109.293 219.594h15.762v15.761h-15.762Zm0 0" fill="#fff"/></g></g><g clip-path="url(#E)"><g clip-path="url(#F)"><path d="M220.129 189.777h15.762v15.762h-15.762Zm0 0" fill="#fff"/></g></g></svg>
