<?xml version="1.0" encoding="UTF-8"?>
<svg data-bbox="10.312 119.215 353.012 136.57" height="500" viewBox="0 0 375 375" width="500" xmlns="http://www.w3.org/2000/svg" data-type="ugc"><defs><clipPath id="a"><path d="M106.176 141.883h25.535v25.535h-25.535Zm0 0"/></clipPath><clipPath id="b"><path d="M118.941 141.883c-7.05 0-12.765 5.715-12.765 12.765s5.715 12.77 12.765 12.77 12.77-5.719 12.77-12.77-5.719-12.765-12.77-12.765m0 0"/></clipPath><clipPath id="c"><path d="M47.793 119.215h11.809v11.805H47.793Zm0 0"/></clipPath><clipPath id="d"><path d="M53.7 119.215a5.903 5.903 0 1 0 0 11.805 5.902 5.902 0 0 0 0-11.805m0 0"/></clipPath><clipPath id="e"><path d="M50.23 189.207h11.81v11.805H50.23Zm0 0"/></clipPath><clipPath id="f"><path d="M56.137 189.207a5.903 5.903 0 1 0 0 11.805 5.902 5.902 0 0 0 0-11.805m0 0"/></clipPath><clipPath id="g"><path d="M77.32 189.207h11.81v11.805H77.32Zm0 0"/></clipPath><clipPath id="h"><path d="M83.227 189.207a5.903 5.903 0 1 0 0 11.805 5.902 5.902 0 0 0 0-11.805m0 0"/></clipPath><clipPath id="i"><path d="M33.95 161.512h11.808v11.808H33.949Zm0 0"/></clipPath><clipPath id="j"><path d="M39.852 161.512a5.905 5.905 0 1 0 .005 11.807 5.905 5.905 0 0 0-.005-11.807m0 0"/></clipPath><clipPath id="k"><path d="M75.047 119.215h11.808v11.805H75.047Zm0 0"/></clipPath><clipPath id="l"><path d="M80.953 119.215a5.903 5.903 0 1 0 0 11.805 5.902 5.902 0 0 0 0-11.805m0 0"/></clipPath><clipPath id="m"><path d="M99.055 168.293h11.804v11.809H99.055Zm0 0"/></clipPath><clipPath id="n"><path d="M104.957 168.293a5.9 5.9 0 0 0-5.902 5.902 5.903 5.903 0 1 0 11.804 0 5.9 5.9 0 0 0-5.902-5.902m0 0"/></clipPath><clipPath id="o"><path d="M127.48 168.293h11.81v11.809h-11.81Zm0 0"/></clipPath><clipPath id="p"><path d="M133.383 168.293a5.905 5.905 0 1 0 .005 11.81 5.905 5.905 0 0 0-.005-11.81m0 0"/></clipPath><clipPath id="q"><path d="M127.48 243.98h11.81v11.805h-11.81Zm0 0"/></clipPath><clipPath id="r"><path d="M133.383 243.98a5.902 5.902 0 0 0 0 11.805 5.903 5.903 0 1 0 0-11.805m0 0"/></clipPath><clipPath id="s"><path d="M99.055 243.98h11.804v11.805H99.055Zm0 0"/></clipPath><clipPath id="t"><path d="M104.957 243.98a5.9 5.9 0 0 0-5.902 5.903 5.9 5.9 0 0 0 5.902 5.902 5.9 5.9 0 0 0 5.902-5.902 5.9 5.9 0 0 0-5.902-5.903m0 0"/></clipPath><clipPath id="u"><path d="M84.844 218.035h11.804v11.805H84.844Zm0 0"/></clipPath><clipPath id="v"><path d="M90.746 218.035a5.9 5.9 0 0 0-5.902 5.903 5.9 5.9 0 0 0 5.902 5.902 5.9 5.9 0 0 0 5.902-5.903 5.9 5.9 0 0 0-5.902-5.902m0 0"/></clipPath><clipPath id="w"><path d="M41.89 218.035H53.7v11.805H41.89Zm0 0"/></clipPath><clipPath id="x"><path d="M47.793 218.035a5.902 5.902 0 0 0 0 11.805 5.903 5.903 0 1 0 0-11.805m0 0"/></clipPath><clipPath id="y"><path d="M35.453 234.246h11.809v11.809H35.453Zm0 0"/></clipPath><clipPath id="z"><path d="M41.355 234.246a5.905 5.905 0 1 0 .005 11.807 5.905 5.905 0 0 0-.005-11.807m0 0"/></clipPath><clipPath id="A"><path d="M10.313 234.246h11.804v11.809H10.312Zm0 0"/></clipPath><clipPath id="B"><path d="M16.215 234.246a5.903 5.903 0 0 0-5.902 5.906 5.902 5.902 0 0 0 11.804 0 5.903 5.903 0 0 0-5.902-5.906m0 0"/></clipPath><clipPath id="C"><path d="M16.215 211.543h11.808v11.805H16.215Zm0 0"/></clipPath><clipPath id="D"><path d="M22.117 211.543a5.902 5.902 0 0 0 0 11.805 5.903 5.903 0 1 0 0-11.805m0 0"/></clipPath><clipPath id="E"><path d="M99.242 189.207h11.805v11.805H99.242Zm0 0"/></clipPath><clipPath id="F"><path d="M105.145 189.207a5.902 5.902 0 1 0 0 11.805 5.902 5.902 0 0 0 0-11.805m0 0"/></clipPath></defs><path stroke-width="6.18" stroke="#5303a2" d="m22.993 216.258 15.969-50.063M56.3 196.434l-17.124-33.125m14.457 33.129h31.722M52.718 125.12l30.504 69.992m1.158-69.995H51.724m50.916 49.074-21.695-47.86M45.75 240.15H15.133m33.08-18.57-6.86 21.46m8.877-19.103h42.645m-2.423-2.091 15.719 31.125m30.301-78.776h-28.137m25.048 78.777v-81.538" fill="none"/><g clip-path="url(#a)"><g clip-path="url(#b)"><path d="M106.176 141.883h25.535v25.535h-25.535Zm0 0" fill="#5303a2"/></g></g><g clip-path="url(#c)"><g clip-path="url(#d)"><path d="M47.793 119.215h11.809v11.805H47.793Zm0 0" fill="#5303a2"/></g></g><path stroke-width="6.18" stroke="#5303a2" d="M134.308 249.883H106.17m-1.213-75.183v20.414" fill="none"/><g clip-path="url(#e)"><g clip-path="url(#f)"><path d="M50.23 189.207h11.81v11.805H50.23Zm0 0" fill="#5303a2"/></g></g><g clip-path="url(#g)"><g clip-path="url(#h)"><path d="M77.32 189.207h11.81v11.805H77.32Zm0 0" fill="#5303a2"/></g></g><g clip-path="url(#i)"><g clip-path="url(#j)"><path d="M33.95 161.512h11.808v11.808H33.949Zm0 0" fill="#5303a2"/></g></g><g clip-path="url(#k)"><g clip-path="url(#l)"><path d="M75.047 119.215h11.808v11.805H75.047Zm0 0" fill="#5303a2"/></g></g><g clip-path="url(#m)"><g clip-path="url(#n)"><path d="M99.055 168.293h11.804v11.809H99.055Zm0 0" fill="#5303a2"/></g></g><g clip-path="url(#o)"><g clip-path="url(#p)"><path d="M127.48 168.293h11.81v11.809h-11.81Zm0 0" fill="#5303a2"/></g></g><g clip-path="url(#q)"><g clip-path="url(#r)"><path d="M127.48 243.98h11.81v11.805h-11.81Zm0 0" fill="#5303a2"/></g></g><g clip-path="url(#s)"><g clip-path="url(#t)"><path d="M99.055 243.98h11.804v11.805H99.055Zm0 0" fill="#5303a2"/></g></g><g clip-path="url(#u)"><g clip-path="url(#v)"><path d="M84.844 218.035h11.804v11.805H84.844Zm0 0" fill="#5303a2"/></g></g><g clip-path="url(#w)"><g clip-path="url(#x)"><path d="M41.89 218.035H53.7v11.805H41.89Zm0 0" fill="#5303a2"/></g></g><g clip-path="url(#y)"><g clip-path="url(#z)"><path d="M35.453 234.246h11.809v11.809H35.453Zm0 0" fill="#5303a2"/></g></g><g clip-path="url(#A)"><g clip-path="url(#B)"><path d="M10.313 234.246h11.804v11.809H10.312Zm0 0" fill="#5303a2"/></g></g><g clip-path="url(#C)"><g clip-path="url(#D)"><path d="M16.215 211.543h11.808v11.805H16.215Zm0 0" fill="#5303a2"/></g></g><g clip-path="url(#E)"><g clip-path="url(#F)"><path d="M99.242 189.207h11.805v11.805H99.242Zm0 0" fill="#5303a2"/></g></g><path d="M214.92 199.33H182.5l-6.188 14.968h-16.547l31.11-69.828h15.969l31.218 69.828h-16.953Zm-5.093-12.266-11.063-26.735-11.078 26.735Zm35.508-42.594h16.156v69.828h-16.156Zm32.715 0h16.155v69.828H278.05Zm55.65 71.031c-5.524 0-10.86-.75-16.016-2.25q-7.72-2.249-12.406-5.828l5.484-12.172q4.484 3.283 10.672 5.281c4.125 1.336 8.25 2 12.375 2q6.874.002 10.156-2.047 3.296-2.044 3.297-5.437c0-1.664-.652-3.047-1.953-4.14q-1.938-1.64-4.984-2.641-3.035-.996-8.219-2.203-7.987-1.888-13.078-3.782-5.08-1.904-8.719-6.093c-2.43-2.79-3.64-6.516-3.64-11.172q0-6.076 3.28-11.016 3.294-4.933 9.938-7.828 6.64-2.89 16.203-2.89 6.687 0 13.063 1.593 6.388 1.595 11.187 4.578l-4.984 12.281q-9.69-5.484-19.36-5.484-6.785 0-10.03 2.188-3.235 2.19-3.235 5.78c0 2.4 1.242 4.18 3.734 5.345q3.748 1.736 11.422 3.437 7.981 1.892 13.063 3.797 5.09 1.894 8.734 5.984 3.64 4.08 3.64 11.063-.001 5.988-3.343 10.922-3.33 4.938-10.016 7.844-6.69 2.889-16.265 2.89m0 0" fill="#360aa2"/></svg>